<?xml version="1.0" encoding="utf-8"?>
<!-- Generator: Adobe Illustrator 15.0.0, SVG Export Plug-In  -->
<!DOCTYPE svg PUBLIC "-//W3C//DTD SVG 1.1//EN" "http://www.w3.org/Graphics/SVG/1.1/DTD/svg11.dtd" [
	<!ENTITY ns_flows "http://ns.adobe.com/Flows/1.0/">
]>
<svg version="1.1"
	 xmlns="http://www.w3.org/2000/svg" xmlns:xlink="http://www.w3.org/1999/xlink" xmlns:a="http://ns.adobe.com/AdobeSVGViewerExtensions/3.0/"
	 x="0px" y="0px" width="1000px" height="1000px" viewBox="-173.841 -140.642 1000 1000"
	 overflow="visible" enable-background="new -173.841 -140.642 1000 1000" xml:space="preserve">
<defs>
</defs>
<circle fill="#FFFFFF" cx="330.18" cy="363.275" r="143.833"/>
<path fill="#FFFFFF" d="M656.928,435.247c0,0-2.912-133.333-101.324-231.746c-81.746-81.747-225.444-55.818-225.444-55.818V2.962
	c0,0,176.492-23.017,258.777,59.269C688.087,161.381,656.928,435.247,656.928,435.247z"/>
<path fill="#FFFFFF" d="M4.641,288.588c0,0,2.912,133.332,101.324,231.745c81.747,81.747,225.445,55.817,225.445,55.817v144.721
	c0,0-176.493,23.018-258.778-59.268C-26.518,562.454,4.641,288.588,4.641,288.588z"/>
</svg>
